<!-- icon666.com - MILLIONS vector ICONS FREE --><svg version="1.1" id="Capa_1" xmlns="http://www.w3.org/2000/svg" xmlns:xlink="http://www.w3.org/1999/xlink" x="0px" y="0px" viewBox="0 0 512 512" style="enable-background:new 0 0 512 512;" xml:space="preserve"><g><g><path d="M462,0H50C22.43,0,0,22.43,0,50v412c0,27.57,22.43,50,50,50h412c27.57,0,50-22.43,50-50V50C512,22.43,489.57,0,462,0z M492,462c0,16.542-13.458,30-30,30H50c-16.542,0-30-13.458-30-30V50c0-16.542,13.458-30,30-30h412c16.542,0,30,13.458,30,30V462z "></path></g></g><g><g><path d="M461,411c-5.522,0-10,4.478-10,10c0,16.542-13.458,30-30,30c-5.522,0-10,4.478-10,10c0,5.522,4.478,10,10,10 c27.57,0,50-22.43,50-50C471,415.478,466.522,411,461,411z"></path></g></g><g><g><path d="M421,41c-5.522,0-10,4.478-10,10s4.478,10,10,10c16.542,0,30,13.458,30,30c0,5.522,4.478,10,10,10c5.522,0,10-4.478,10-10 C471,63.43,448.57,41,421,41z"></path></g></g><g><g><path d="M91,41c-27.57,0-50,22.43-50,50c0,5.522,4.477,10,10,10s10-4.478,10-10c0-16.542,13.458-30,30-30c5.523,0,10-4.478,10-10 S96.523,41,91,41z"></path></g></g><g><g><path d="M91,451c-16.542,0-30-13.458-30-30c0-5.522-4.477-10-10-10s-10,4.478-10,10c0,27.57,22.43,50,50,50 c5.523,0,10-4.478,10-10C101,455.478,96.523,451,91,451z"></path></g></g><g><g><circle cx="421" cy="421" r="11"></circle></g></g><g><g><circle cx="92" cy="421" r="11"></circle></g></g><g><g><circle cx="421" cy="91" r="11"></circle></g></g><g><g><circle cx="92" cy="91" r="11"></circle></g></g><g><g><path d="M457.989,256.914C457.99,256.608,458,256.305,458,256c0-54.117-21.395-103.329-56.167-139.63 c-0.694-0.824-1.419-1.627-2.19-2.397c-0.316-0.316-0.653-0.597-0.999-0.862c-35.966-35.906-85.365-58.348-139.91-59.076 c-0.529-0.022-1.06-0.035-1.593-0.035c-0.078,0-0.152,0.01-0.229,0.012C256.608,54.01,256.305,54,256,54 c-54.102,0-103.301,21.383-139.599,56.136c-0.836,0.704-1.649,1.44-2.428,2.22c-0.311,0.312-0.591,0.647-0.856,0.993 c-35.909,35.967-58.353,85.367-59.081,139.915c-0.022,0.529-0.035,1.06-0.035,1.593c0,0.078,0.01,0.152,0.012,0.229 C54.01,255.392,54,255.695,54,256c0,54.116,21.394,103.327,56.165,139.628c0.694,0.825,1.42,1.628,2.191,2.399 c0.317,0.317,0.654,0.598,1,0.864c35.966,35.904,85.363,58.346,139.908,59.074c0.529,0.022,1.06,0.035,1.593,0.035 c0.078,0,0.153-0.01,0.23-0.012C255.392,457.99,255.695,458,256,458c54.151,0,103.39-21.423,139.698-56.233 c0.799-0.676,1.582-1.375,2.33-2.124c0.316-0.316,0.597-0.653,0.863-0.999c35.905-35.966,58.346-85.364,59.075-139.908 c0.022-0.529,0.035-1.06,0.035-1.593C458.001,257.065,457.991,256.991,457.989,256.914z M389.417,159.9 c-4.431,16.064-15.006,33.045-29.775,47.814c-9.229,9.229-19.321,16.808-29.513,22.28c-2.686-7.632-6.504-14.735-11.276-21.088 l71.662-71.662C392.153,143.407,391.817,151.203,389.417,159.9z M378.219,121.257l-68.732,68.73 c3.633-12.445,5.656-26.474,5.656-41.415c0-28.031-7.12-52.849-18.634-70.021C327.478,85.617,355.466,100.601,378.219,121.257z M267.143,76.91c5.517,3.2,10.791,8.95,15.244,16.797c8.226,14.492,12.756,33.977,12.756,54.864 c0,13.049-1.779,25.539-5.113,36.615c-7.103-3.426-14.801-5.8-22.887-6.953V76.91z M247.143,74.219v97.282 c-6.231-11.369-14.72-22.719-25.286-33.285c-17.177-17.177-37.292-29.576-56.639-34.913c-2.016-0.556-3.993-1.004-5.95-1.398 C184.965,85.716,214.969,75.769,247.143,74.219z M159.9,122.583c16.064,4.431,33.045,15.006,47.814,29.775 c9.229,9.229,16.806,19.321,22.281,29.512c-7.633,2.686-14.736,6.504-21.089,11.277l-71.663-71.662 C143.408,119.847,151.201,120.182,159.9,122.583z M121.256,133.782l68.731,68.731c-12.445-3.633-26.474-5.656-41.416-5.656 c-28.031,0-52.849,7.12-70.021,18.634C85.616,184.523,100.599,156.535,121.256,133.782z M93.706,229.613 c14.493-8.226,33.978-12.756,54.865-12.756c13.049,0,25.54,1.778,36.615,5.113c-3.426,7.103-5.8,14.801-6.953,22.887H76.91 C80.11,239.34,85.86,234.066,93.706,229.613z M101.905,352.732c-16.189-25.697-26.137-55.702-27.687-87.875h97.283 c-11.369,6.231-22.719,14.72-33.285,25.285C118.427,309.932,105.927,332.473,101.905,352.732z M122.583,352.101 c4.432-16.064,15.006-33.046,29.775-47.815c9.229-9.229,19.32-16.812,29.512-22.284c2.686,7.634,6.505,14.738,11.278,21.092 l-71.663,71.662C119.847,368.593,120.183,360.798,122.583,352.101z M133.782,390.744l68.73-68.73 c-3.633,12.445-5.655,26.474-5.655,41.415c0,28.031,7.12,52.849,18.634,70.021C184.522,426.384,156.534,411.4,133.782,390.744z M244.857,435.09c-5.517-3.2-10.791-8.95-15.244-16.797c-8.226-14.492-12.756-33.978-12.756-54.864 c0-13.048,1.776-25.54,5.108-36.618c7.104,3.428,14.804,5.802,22.892,6.956V435.09z M197.429,256 c0-32.296,26.275-58.571,58.571-58.571s58.571,26.275,58.571,58.571S288.296,314.571,256,314.571S197.429,288.296,197.429,256z M264.857,437.781v-97.282c6.231,11.369,14.72,22.72,25.285,33.285c19.787,19.787,42.325,32.293,62.582,36.316 C327.028,426.286,297.027,436.232,264.857,437.781z M352.1,389.417c-16.064-4.431-33.045-15.006-47.814-29.775 c-9.229-9.229-16.802-19.322-22.277-29.514c7.631-2.686,14.733-6.504,21.085-11.275l71.663,71.662 C368.592,392.153,360.797,391.818,352.1,389.417z M390.743,378.219l-68.73-68.732c12.445,3.633,26.474,5.656,41.415,5.656 c28.031,0,52.849-7.12,70.021-18.634C426.383,327.478,411.399,355.466,390.743,378.219z M418.293,282.387 c-14.492,8.226-33.977,12.756-54.864,12.756c-13.048,0-25.539-1.777-36.617-5.11c3.428-7.103,5.802-14.803,6.955-22.89H435.09 C431.89,272.66,426.14,277.934,418.293,282.387z M340.493,247.143c11.371-6.231,22.724-14.719,33.292-25.285 c19.789-19.789,32.29-42.331,36.311-62.591c16.189,25.698,26.137,55.702,27.687,87.876H340.493z"></path></g></g><g><g><path d="M255.892,223.143c-18.117,0.059-32.809,14.847-32.749,32.965c0.059,18.117,14.847,32.809,32.964,32.75 c18.118-0.06,32.81-14.848,32.75-32.965C288.798,237.776,274.009,223.084,255.892,223.143z M256.042,268.857 c-7.089,0.023-12.876-5.725-12.899-12.815c-0.023-7.09,5.726-12.876,12.815-12.899c7.09-0.023,12.876,5.726,12.899,12.815 C268.88,263.047,263.131,268.834,256.042,268.857z"></path></g></g></svg>